<svg xmlns="http://www.w3.org/2000/svg" class="h-4 w-4" viewBox="0 0 41 41" fill="none"><path d="M33.7715 14.375H20.5006C19.3777 14.375 18.459 13.4562 18.459 12.3333C18.459 11.2104 19.3777 10.2916 20.5006 10.2916H33.7715C35.4661 10.2916 36.834 8.92373 36.834 7.22915C36.834 5.53456 35.4661 4.16665 33.7715 4.16665H28.6673C27.5444 4.16665 26.6256 3.2479 26.6256 2.12498C26.6256 1.00206 27.5444 0.083313 28.6673 0.083313H33.7715C37.7119 0.083313 40.9173 3.28873 40.9173 7.22915C40.9173 11.1696 37.7119 14.375 33.7715 14.375ZM40.9173 33.7708C40.9173 29.8304 37.7119 26.625 33.7715 26.625H20.5006C19.3777 26.625 18.459 27.5437 18.459 28.6666C18.459 29.7896 19.3777 30.7083 20.5006 30.7083H33.7715C35.4661 30.7083 36.834 32.0762 36.834 33.7708C36.834 35.4654 35.4661 36.8333 33.7715 36.8333H28.6673C27.5444 36.8333 26.6256 37.7521 26.6256 38.875C26.6256 39.9979 27.5444 40.9166 28.6673 40.9166H33.7715C37.7119 40.9166 40.9173 37.7112 40.9173 33.7708ZM28.6673 20.5C28.6673 19.3771 27.7486 18.4583 26.6256 18.4583H16.4173C15.2944 18.4583 14.3757 19.3771 14.3757 20.5C14.3757 21.6229 15.2944 22.5416 16.4173 22.5416H26.6256C27.7486 22.5416 28.6673 21.6229 28.6673 20.5ZM12.334 20.5C12.334 19.3771 11.4152 18.4583 10.2923 18.4583H8.25065C7.12773 18.4583 6.20898 19.3771 6.20898 20.5C6.20898 21.6229 7.12773 22.5416 8.25065 22.5416H10.2923C11.4152 22.5416 12.334 21.6229 12.334 20.5ZM16.4173 12.3333C16.4173 11.2104 15.4986 10.2916 14.3757 10.2916H10.2923C9.1694 10.2916 8.25065 11.2104 8.25065 12.3333C8.25065 13.4562 9.1694 14.375 10.2923 14.375H14.3757C15.4986 14.375 16.4173 13.4562 16.4173 12.3333ZM16.4173 28.6666C16.4173 27.5437 15.4986 26.625 14.3757 26.625H10.2923C9.1694 26.625 8.25065 27.5437 8.25065 28.6666C8.25065 29.7896 9.1694 30.7083 10.2923 30.7083H14.3757C15.4986 30.7083 16.4173 29.7896 16.4173 28.6666ZM18.459 34.7916C18.459 35.9146 17.5402 36.8333 16.4173 36.8333H6.20898C5.08607 36.8333 4.16732 35.9146 4.16732 34.7916V6.20831C4.16732 5.0854 5.08607 4.16665 6.20898 4.16665H16.4173C17.5402 4.16665 18.459 5.0854 18.459 6.20831H22.5423C22.5423 2.83956 19.7861 0.083313 16.4173 0.083313H6.20898C2.84023 0.083313 0.0839844 2.83956 0.0839844 6.20831V34.7916C0.0839844 38.1604 2.84023 40.9166 6.20898 40.9166H16.4173C19.7861 40.9166 22.5423 38.1604 22.5423 34.7916H18.459Z" fill="#6366F1"/></svg>