<svg xmlns="http://www.w3.org/2000/svg" className="w-6 h-6 md:w-8 md:h-8" viewBox="0 0 56 54" fill="none">
<path d="M16.6009 30.8431C16.3968 30.8439 16.2 30.7699 16.0503 30.6361C15.2199 29.9117 14.5471 29.0354 14.0708 28.0582C13.5946 27.081 13.3244 26.0223 13.2759 24.9436C13.2274 23.8616 13.4022 22.7811 13.7904 21.7649C14.1785 20.7487 14.7722 19.8169 15.5369 19.0238C17.0516 17.4405 19.1513 16.4952 21.3827 16.3921C23.614 16.2889 25.7978 17.0362 27.4626 18.4726C27.5559 18.5329 27.642 18.6031 27.7193 18.6818C28.1229 18.8753 28.2583 19.3388 28.0599 19.7258C27.8616 20.1128 27.3459 20.2636 26.9399 20.0656C26.7973 19.9947 26.6686 19.9002 26.5596 19.7866C23.6313 17.2261 19.2866 17.4061 16.7409 20.0836C16.1223 20.7247 15.6419 21.4778 15.3275 22.2993C15.013 23.1209 14.8709 23.9944 14.9093 24.8693C14.9495 25.7412 15.1688 26.5966 15.5545 27.3861C15.9403 28.1755 16.4847 28.8833 17.1563 29.4683C17.2354 29.5383 17.2995 29.6226 17.3448 29.7165C17.3901 29.8104 17.4158 29.9119 17.4203 30.0154C17.4249 30.1188 17.4082 30.2221 17.3713 30.3194C17.3344 30.4166 17.278 30.5059 17.2053 30.5821C17.1293 30.6642 17.0362 30.7299 16.932 30.7749C16.8279 30.8198 16.7151 30.8431 16.6009 30.8431ZM17.2613 14.9356C17.1002 14.9356 16.9427 14.8897 16.8086 14.8036C16.6745 14.7175 16.5697 14.5951 16.5076 14.4518L15.3176 11.7158C15.2344 11.5228 15.2341 11.3057 15.3168 11.1125C15.3995 10.9192 15.5584 10.7656 15.7586 10.6853C15.9588 10.6051 16.1839 10.6048 16.3843 10.6845C16.5847 10.7643 16.744 10.9175 16.8273 11.1106L18.0173 13.8466C18.0681 13.9664 18.0877 14.0964 18.0742 14.2252C18.0607 14.354 18.0146 14.4776 17.9399 14.5851C17.8653 14.6927 17.7643 14.7809 17.646 14.842C17.5276 14.9031 17.3955 14.9353 17.2613 14.9356ZM7.81128 31.1581C7.62248 31.1582 7.43948 31.0952 7.29341 30.9799C7.14734 30.8645 7.04722 30.7039 7.01009 30.5254C6.97296 30.347 7.00111 30.1616 7.08975 30.0008C7.17839 29.8401 7.32205 29.7139 7.49628 29.6438L10.3406 28.4986C10.5405 28.418 10.7654 28.4173 10.9658 28.4966C11.1662 28.576 11.3257 28.7288 11.4093 28.9216C11.4928 29.1143 11.4935 29.3312 11.4113 29.5244C11.329 29.7177 11.1705 29.8715 10.9706 29.9521L8.12628 31.0973C8.02629 31.1369 7.91935 31.1575 7.81128 31.1581ZM10.7186 21.1703C10.6105 21.17 10.5035 21.1493 10.4036 21.1096L7.56394 19.9643C7.46497 19.9244 7.37511 19.8661 7.2995 19.7928C7.2239 19.7194 7.16402 19.6324 7.12328 19.5367C7.08255 19.441 7.06176 19.3385 7.0621 19.2351C7.06244 19.1316 7.08391 19.0293 7.12528 18.9338C7.16664 18.8384 7.2271 18.7517 7.30319 18.6788C7.37928 18.6059 7.46952 18.5482 7.56876 18.5089C7.66799 18.4696 7.77428 18.4496 7.88155 18.4499C7.98882 18.4502 8.09497 18.4709 8.19394 18.5108L11.0336 19.6561C11.2078 19.7262 11.3515 19.8523 11.4401 20.0131C11.5288 20.1738 11.5569 20.3592 11.5198 20.5377C11.4827 20.7162 11.3825 20.8768 11.2365 20.9921C11.0904 21.1074 10.9074 21.1704 10.7186 21.1703ZM26.4453 15.0008C26.3107 15.0007 26.1783 14.9686 26.0597 14.9073C25.9411 14.8461 25.84 14.7576 25.7652 14.6498C25.6905 14.5419 25.6445 14.4179 25.6312 14.2888C25.618 14.1597 25.6379 14.0295 25.6893 13.9096L26.8793 11.1736C26.9628 10.9805 27.1225 10.8274 27.3231 10.7478C27.5237 10.6683 27.7489 10.6689 27.9491 10.7494C28.1493 10.83 28.3081 10.9839 28.3906 11.1774C28.4731 11.3709 28.4725 11.588 28.3889 11.7811L27.1989 14.5171C27.1368 14.6604 27.0321 14.7828 26.898 14.8689C26.7639 14.9549 26.6064 15.0009 26.4453 15.0008Z" fill="#010101"/>
<path d="M41.9697 43.3755H19.11C18.9909 43.3698 18.8738 43.3431 18.7647 43.2967C14.8564 42.9367 11.8184 39.7462 11.8184 35.9707C11.8184 31.8892 15.295 28.566 19.5697 28.566C19.7307 28.566 19.9034 28.566 20.0784 28.5727C20.1927 23.0062 24.899 18.513 30.6717 18.513C33.4961 18.5141 36.2047 19.5958 38.203 21.5206C40.2013 23.4455 41.326 26.0561 41.3304 28.7797C41.3304 28.8855 41.3257 28.9845 41.3164 29.0835C42.3109 29.0509 43.3021 29.2114 44.2311 29.5554C45.1601 29.8995 46.0079 30.42 46.7242 31.0862C47.4405 31.7523 48.0106 32.5505 48.4008 33.4332C48.7909 34.316 48.9931 35.2654 48.9954 36.225C48.9954 40.0882 45.9247 43.2292 42 43.3755H41.9697ZM19.299 41.8005H41.9534C44.989 41.679 47.3644 39.2332 47.3644 36.225C47.3607 34.746 46.7489 33.3288 45.6633 32.284C44.5777 31.2393 43.1068 30.6523 41.573 30.6517C41.2627 30.6517 40.9524 30.699 40.6047 30.7462C40.4658 30.7672 40.3238 30.7589 40.1884 30.7221C40.0531 30.6852 39.9277 30.6205 39.8207 30.5325C39.6387 30.3525 39.473 30.1117 39.5127 29.8665C39.536 29.7315 39.564 29.5965 39.5967 29.4592C39.648 29.2252 39.6994 29.0002 39.6994 28.782C39.695 26.4757 38.7421 24.2653 37.0496 22.6358C35.3571 21.0063 33.0634 20.0908 30.6717 20.0902C25.7297 20.0902 21.707 23.9895 21.707 28.782C21.707 28.8675 21.7234 28.9417 21.735 29.016C21.7584 29.1645 21.777 29.313 21.777 29.4817C21.7778 29.6038 21.7489 29.7243 21.6928 29.8337C21.6366 29.9431 21.5547 30.0383 21.4536 30.1118C21.3525 30.1852 21.235 30.2349 21.1105 30.2567C20.9859 30.2786 20.8578 30.2721 20.7364 30.2377C20.3817 30.141 20.006 30.141 19.5697 30.141C16.1957 30.141 13.4494 32.7555 13.4494 35.9685C13.4494 38.9745 15.9064 41.5102 19.04 41.7375C19.1294 41.7446 19.2169 41.7659 19.299 41.8005Z" fill="#010101"/>
<path d="M30.5548 38.2815C29.3484 38.2827 28.1615 37.9877 27.1061 37.4243C26.0494 36.8283 25.1564 35.9965 24.5021 34.9988C24.3961 34.8238 24.3642 34.6162 24.4129 34.4191C24.4615 34.222 24.5871 34.0506 24.7635 33.9405C24.9399 33.8304 25.1535 33.7901 25.3599 33.8279C25.5663 33.8658 25.7496 33.9789 25.8718 34.1438C26.4178 34.9583 27.1201 35.6198 27.9064 36.0518C30.4684 37.4265 33.7748 36.585 35.2564 34.1708C35.307 34.0747 35.3775 33.9897 35.4635 33.921C35.5495 33.8522 35.6492 33.8012 35.7565 33.7711C35.8638 33.741 35.9763 33.7325 36.0871 33.746C36.1979 33.7595 36.3047 33.7948 36.4008 33.8497C36.4969 33.9046 36.5803 33.978 36.6459 34.0652C36.7114 34.1524 36.7577 34.2517 36.7819 34.3569C36.8061 34.462 36.8076 34.5708 36.7865 34.6766C36.7653 34.7824 36.7218 34.8828 36.6588 34.9718C35.3614 37.089 32.9884 38.2815 30.5548 38.2815Z" fill="#010101"/>
</svg>