<svg xmlns="http://www.w3.org/2000/svg" viewBox="0 0 32 39"  fill="none" className="w-4 h-4 md:w-5 md:h-5 lg:w-6 lg:h-6" >
<path
d="M14.5813 2C19.3687 4.31779 29.3491 15.3346 30.6272 23.3179C30.705 27.5006 29.1435 30.8677 26.5984 33.2561C23.906 35.7809 20.105 37.2198 15.8817 37.2198C12.0451 37.2403 8.33839 36.0027 5.49007 33.7504C2.78102 31.5835 1.08058 28.5792 1 25.2534C2.39759 15.4296 12.1501 4.58317 14.5813 2ZM9.53835 19.846C9.51228 19.8794 9.48906 19.9144 9.46889 19.9507C8.57421 21.4602 7.82957 23.0062 7.53783 25.324C7.57117 26.3174 7.93515 27.2401 8.53253 28.0289C9.1827 28.8859 10.1107 29.5895 11.1999 30.0716C11.2971 30.113 11.3972 30.1227 11.4944 30.113C11.6004 30.1022 11.7007 30.065 11.7834 30.0059L11.8112 29.9937L11.5944 29.7502C10.6831 28.7398 9.31607 27.1524 9.31607 25.0124C9.31607 23.1815 9.52724 21.0853 9.53835 19.8485V19.846Z"
stroke="#1E293B"
strokeWidth="2"
/>
            </svg>