<svg xmlns="http://www.w3.org/2000/svg" width="43" height="42" viewBox="0 0 43 42" fill="none"><path d="M13.882 35.698C13.3251 35.698 12.791 35.9193 12.3972 36.3131C12.0034 36.7069 11.7822 37.241 11.7822 37.7979V39.8978C11.7822 40.4547 12.0034 40.9888 12.3972 41.3826C12.791 41.7764 13.3251 41.9977 13.882 41.9977C14.439 41.9977 14.9731 41.7764 15.3669 41.3826C15.7607 40.9888 15.9819 40.4547 15.9819 39.8978V37.7979C15.9819 37.241 15.7607 36.7069 15.3669 36.3131C14.9731 35.9193 14.439 35.698 13.882 35.698ZM13.882 25.1986C13.3251 25.1986 12.791 25.4198 12.3972 25.8137C12.0034 26.2075 11.7822 26.7416 11.7822 27.2985V29.3984C11.7822 29.9553 12.0034 30.4894 12.3972 30.8832C12.791 31.277 13.3251 31.4983 13.882 31.4983C14.439 31.4983 14.9731 31.277 15.3669 30.8832C15.7607 30.4894 15.9819 29.9553 15.9819 29.3984V27.2985C15.9819 26.7416 15.7607 26.2075 15.3669 25.8137C14.9731 25.4198 14.439 25.1986 13.882 25.1986ZM40.1306 10.4994H38.4507C38.2336 9.55719 37.8648 8.6565 37.3587 7.83257L38.5347 6.65663C38.8787 6.25492 39.0585 5.73819 39.038 5.2097C39.0176 4.68121 38.7985 4.17989 38.4246 3.80591C38.0506 3.43193 37.5493 3.21284 37.0208 3.19243C36.4923 3.17202 35.9755 3.35178 35.5738 3.6958L34.3979 4.87173C33.574 4.36569 32.6733 3.9969 31.731 3.77979V2.09988C31.731 1.54296 31.5098 1.00885 31.116 0.615042C30.7222 0.221237 30.1881 0 29.6312 0C29.0742 0 28.5401 0.221237 28.1463 0.615042C27.7525 1.00885 27.5313 1.54296 27.5313 2.09988V3.77979C26.5946 3.99359 25.7003 4.36267 24.8854 4.87173L23.6885 3.6958C23.2868 3.35178 22.7701 3.17202 22.2416 3.19243C21.7131 3.21284 21.2117 3.43193 20.8378 3.80591C20.4638 4.17989 20.2447 4.68121 20.2243 5.2097C20.2039 5.73819 20.3836 6.25492 20.7277 6.65663L21.9036 7.85357C21.7146 8.16855 21.5676 8.52553 21.3996 8.86151C20.32 8.55674 19.2036 8.40131 18.0818 8.39954C15.0556 8.39782 12.1298 9.48539 9.83949 11.4634C7.54916 13.4414 6.04729 16.1777 5.60849 19.1719C4.1462 19.5791 2.84586 20.4291 1.8861 21.6051C0.926332 22.7811 0.354225 24.2254 0.248367 25.7396C0.14251 27.2538 0.508094 28.7637 1.2949 30.0618C2.08171 31.3599 3.25114 32.3825 4.64254 32.9892C4.91015 33.0952 5.19469 33.1521 5.4825 33.1572C5.96798 33.1611 6.43984 32.9967 6.81777 32.692C7.1957 32.3872 7.45636 31.9609 7.55538 31.4856C7.6544 31.0103 7.58566 30.5154 7.36087 30.0851C7.13608 29.6548 6.76913 29.3156 6.32245 29.1254C5.75904 28.8854 5.27909 28.4843 4.94286 27.9725C4.60662 27.4607 4.42909 26.8609 4.43256 26.2486C4.43256 25.4132 4.76441 24.612 5.35512 24.0213C5.94583 23.4306 6.747 23.0987 7.58238 23.0987C8.13931 23.0987 8.67342 22.8775 9.06722 22.4837C9.46103 22.0899 9.68227 21.5558 9.68227 20.9988C9.69127 19.0159 10.4015 17.1001 11.6873 15.5905C12.9731 14.0809 14.7515 13.0749 16.7078 12.7506C18.664 12.4262 20.6719 12.8044 22.3761 13.8182C24.0803 14.832 25.3709 16.4161 26.0194 18.29C26.1394 18.6508 26.3552 18.9723 26.6436 19.2201C26.9321 19.4679 27.2825 19.6327 27.6573 19.6969C28.6326 19.8414 29.5411 20.2783 30.2628 20.9501C30.9845 21.6218 31.4854 22.4968 31.6993 23.4593C31.9132 24.4217 31.83 25.4265 31.4607 26.3407C31.0915 27.2549 30.4535 28.0355 29.6312 28.5794C29.3995 28.7311 29.2 28.9269 29.0441 29.1557C28.8881 29.3844 28.7787 29.6417 28.7222 29.9127C28.6656 30.1838 28.663 30.4633 28.7145 30.7353C28.766 31.0074 28.8705 31.2666 29.0222 31.4983C29.1739 31.7299 29.3697 31.9294 29.5984 32.0854C29.8272 32.2413 30.0845 32.3507 30.3555 32.4073C30.6265 32.4638 30.9061 32.4664 31.1781 32.4149C31.4502 32.3635 31.7094 32.2589 31.941 32.1072C33.1794 31.2654 34.1912 30.1315 34.8871 28.8057C35.583 27.4798 35.9414 26.003 35.9308 24.5056C35.929 23.3906 35.7152 22.286 35.3009 21.2508L35.5738 21.5028C35.965 21.8908 36.4929 22.1095 37.0438 22.1118C37.3201 22.1134 37.5941 22.0604 37.8499 21.9559C38.1058 21.8514 38.3385 21.6974 38.5347 21.5028C38.9258 21.1094 39.1453 20.5772 39.1453 20.0224C39.1453 19.4676 38.9258 18.9354 38.5347 18.542L37.3587 17.366C37.8648 16.5421 38.2336 15.6414 38.4507 14.6992H40.1306C40.6875 14.6992 41.2216 14.478 41.6154 14.0841C42.0092 13.6903 42.2305 13.1562 42.2305 12.5993C42.2305 12.0424 42.0092 11.5083 41.6154 11.1145C41.2216 10.7207 40.6875 10.4994 40.1306 10.4994ZM33.117 16.0641C32.7522 16.43 32.3257 16.7285 31.857 16.9461C31.1719 16.471 30.4223 16.0962 29.6312 15.8331C28.6664 13.7264 27.1499 11.9198 25.2424 10.6044C25.4765 10.062 25.8034 9.5646 26.2084 9.1345C27.1514 8.26228 28.3886 7.77782 29.6732 7.77782C30.9577 7.77782 32.195 8.26228 33.138 9.1345C34.0385 10.0631 34.5422 11.3058 34.5422 12.5993C34.5422 13.8928 34.0385 15.1356 33.138 16.0641H33.117ZM22.2816 33.5981C21.7246 33.5981 21.1905 33.8194 20.7967 34.2132C20.4029 34.607 20.1817 35.1411 20.1817 35.698V37.7979C20.1817 38.3548 20.4029 38.889 20.7967 39.2828C21.1905 39.6766 21.7246 39.8978 22.2816 39.8978C22.8385 39.8978 23.3726 39.6766 23.7664 39.2828C24.1602 38.889 24.3815 38.3548 24.3815 37.7979V35.698C24.3815 35.1411 24.1602 34.607 23.7664 34.2132C23.3726 33.8194 22.8385 33.5981 22.2816 33.5981ZM22.2816 23.0987C21.7246 23.0987 21.1905 23.32 20.7967 23.7138C20.4029 24.1076 20.1817 24.6417 20.1817 25.1986V27.2985C20.1817 27.8554 20.4029 28.3895 20.7967 28.7833C21.1905 29.1771 21.7246 29.3984 22.2816 29.3984C22.8385 29.3984 23.3726 29.1771 23.7664 28.7833C24.1602 28.3895 24.3815 27.8554 24.3815 27.2985V25.1986C24.3815 24.6417 24.1602 24.1076 23.7664 23.7138C23.3726 23.32 22.8385 23.0987 22.2816 23.0987Z" fill="#6366F1"/></svg>