<svg xmlns="http://www.w3.org/2000/svg" width="55" height="28" viewBox="0 0 55 28" fill="none">
<path d="M44.6481 6.15153C39.9116 2.18796 33.9349 0.01111 27.7588 0C14.4671 0 3.12525 10.0237 0.0769483 24.4413C-0.00145532 24.7316 -0.0201907 25.0348 0.0218741 25.3325C0.0639389 25.6303 0.16593 25.9164 0.321686 26.1736C0.477441 26.4308 0.683727 26.6538 0.928078 26.829C1.17243 27.0042 1.44977 27.1281 1.74334 27.1931C2.03692 27.2582 2.34063 27.263 2.63613 27.2074C2.93162 27.1517 3.21277 27.0367 3.46258 26.8694C3.71238 26.702 3.92566 26.4857 4.08953 26.2336C4.2534 25.9815 4.36445 25.6988 4.41597 25.4025C7.02488 13.0171 16.5543 4.39395 27.7588 4.39395C32.1276 4.40927 36.3889 5.7499 39.9795 8.23866L44.6481 6.15153ZM45.8564 9.69415L29.7086 16.9167C28.6967 16.5163 27.5887 16.4256 26.5251 16.656C25.4615 16.8864 24.4903 17.4276 23.7348 18.2109C22.9793 18.9941 22.4735 19.9842 22.2816 21.0554C22.0897 22.1266 22.2203 23.2306 22.6569 24.2274C23.0935 25.2243 23.8164 26.0689 24.7339 26.6543C25.6513 27.2396 26.7219 27.5392 27.8099 27.515C28.8979 27.4909 29.9542 27.144 30.8447 26.5186C31.7353 25.8931 32.42 25.0172 32.8119 24.0019C32.9762 23.597 33.087 23.1723 33.1414 22.7387C33.1865 22.7503 33.2337 22.7503 33.2787 22.7387L47.0098 11.7538C48.6301 10.2709 47.7513 8.84282 45.8564 9.69415Z" fill="#6366F1"/>
<path d="M49.6213 18.7567C50.8953 18.7567 51.9281 17.7239 51.9281 16.4499C51.9281 15.1759 50.8953 14.1431 49.6213 14.1431C48.3473 14.1431 47.3145 15.1759 47.3145 16.4499C47.3145 17.7239 48.3473 18.7567 49.6213 18.7567Z" fill="#6366F1"/>
<path d="M52.6935 27.1324C53.9676 27.1324 55.0004 26.0996 55.0004 24.8256C55.0004 23.5516 53.9676 22.5188 52.6935 22.5188C51.4195 22.5188 50.3867 23.5516 50.3867 24.8256C50.3867 26.0996 51.4195 27.1324 52.6935 27.1324Z" fill="#6366F1"/>
</svg>