<svg xmlns="http://www.w3.org/2000/svg" width="25" height="45" viewBox="0 0 25 45" fill="none"><path d="M14.5403 29.1966V15.3541C14.5403 14.8126 14.3252 14.2933 13.9423 13.9104C13.5594 13.5276 13.0401 13.3125 12.4986 13.3125C11.9572 13.3125 11.4379 13.5276 11.055 13.9104C10.6721 14.2933 10.457 14.8126 10.457 15.3541V29.1966C9.83983 29.5529 9.32667 30.0645 8.9685 30.6806C8.61032 31.2966 8.41961 31.9957 8.41531 32.7083C8.41531 33.7913 8.84552 34.8299 9.61129 35.5956C10.3771 36.3614 11.4157 36.7916 12.4986 36.7916C13.5816 36.7916 14.6202 36.3614 15.386 35.5956C16.1518 34.8299 16.582 33.7913 16.582 32.7083C16.5777 31.9957 16.387 31.2966 16.0288 30.6806C15.6706 30.0645 15.1575 29.5529 14.5403 29.1966ZM21.6861 24.5416V9.22913C21.6861 6.79245 20.7182 4.45557 18.9952 2.73258C17.2722 1.00959 14.9353 0.041626 12.4986 0.041626C10.062 0.041626 7.72509 1.00959 6.0021 2.73258C4.27911 4.45557 3.31114 6.79245 3.31114 9.22913V24.5416C1.90003 26.1407 0.93082 28.0804 0.499384 30.1689C0.0679481 32.2575 0.189236 34.4225 0.851249 36.4498C1.51326 38.4771 2.69306 40.2964 4.27395 41.7278C5.85483 43.1592 7.78203 44.1531 9.86489 44.6112C10.7301 44.8084 11.6119 44.9246 12.4986 44.9583C14.8683 44.9693 17.1902 44.2928 19.1831 43.0108C21.176 41.7288 22.7543 39.8963 23.7267 37.7354C24.6991 35.5745 25.0239 33.1779 24.6617 30.8361C24.2995 28.4943 23.2659 26.3078 21.6861 24.5416ZM17.6028 38.9762C15.9784 40.4166 13.8483 41.1526 11.6811 41.0224C9.51399 40.8922 7.48732 39.9065 6.04698 38.282C4.60663 36.6576 3.87059 34.5275 4.00077 32.3604C4.13095 30.1932 5.11669 28.1666 6.74114 26.7262C6.93406 26.5371 7.08753 26.3116 7.19267 26.0628C7.2978 25.814 7.35252 25.5468 7.35364 25.2766V9.22913C7.35364 7.87542 7.8914 6.57715 8.84862 5.61993C9.80583 4.66272 11.1041 4.12496 12.4578 4.12496C13.8115 4.12496 15.1098 4.66272 16.067 5.61993C17.0242 6.57715 17.562 7.87542 17.562 9.22913V25.44C17.5631 25.7101 17.6178 25.9773 17.7229 26.2261C17.8281 26.475 17.9816 26.7005 18.1745 26.8895C19.009 27.6957 19.6622 28.6705 20.0904 29.749C20.5187 30.8274 20.7122 31.9847 20.6581 33.1438C20.604 34.3029 20.3036 35.4371 19.7767 36.471C19.2499 37.5048 18.5088 38.4146 17.6028 39.1395V38.9762Z" fill="#6366F1"/></svg>